# ProBuilder 5.0.6
# https://unity3d.com/unity/features/worldbuilding/probuilder
# 1/20/2023 8:45:16 AM

mtllib ./Cone.mtl
o Cone

g Cone
v -0.1533923 0.01723145 -0.1526611
v -0.1381852 0.01723145 -0.231146
v -0.08839227 0.1372315 -0.1526611
v -0.08839227 0.01723145 -0.1526611
v -0.09967941 0.01723145 -0.272907
v -0.05589227 0.01723145 -0.2584036
v -0.02731226 0.01723145 -0.1944221
v -0.02731226 0.01723145 -0.1109001
v -0.05589228 0.01723145 -0.04691858
v -0.0996794 0.01723145 -0.03241516
v -0.1381851 0.01723145 -0.07417611

vt 0.08892523 0
vt 0 0
vt 0.04446261 0.1712398
vt -0.1533923 -0.1526611
vt -0.1381852 -0.231146
vt -0.08839227 -0.1526611
vt -0.09967941 -0.272907
vt -0.05589227 -0.2584036
vt -0.02731226 -0.1944221
vt -0.02731226 -0.1109001
vt -0.05589228 -0.04691858
vt -0.0996794 -0.03241516
vt -0.1381851 -0.07417611

vn -0.879292 0.4762831 5.290556E-08
vn -0.7500297 0.5507511 -0.3662358
vn 0.0008161831 0.9999997 7.175762E-08
vn 0 -1 0
vn -0.1968046 0.703162 -0.6832504
vn 0.5369617 0.6349109 -0.5554821
vn 0.8507189 0.4947658 -0.1774379
vn 0.8507189 0.4947658 0.1774379
vn 0.5369615 0.634911 0.5554822
vn -0.1968047 0.703162 0.6832505
vn -0.7500296 0.5507511 0.3662359

usemtl Lit
f 3/3/3 2/2/2 1/1/1
f 1/4/4 2/5/4 4/6/4
f 3/3/3 5/2/5 2/1/2
f 2/5/4 5/7/4 4/6/4
f 3/3/3 6/2/6 5/1/5
f 5/7/4 6/8/4 4/6/4
f 3/3/3 7/2/7 6/1/6
f 6/8/4 7/9/4 4/6/4
f 3/3/3 8/2/8 7/1/7
f 7/9/4 8/10/4 4/6/4
f 3/3/3 9/2/9 8/1/8
f 8/10/4 9/11/4 4/6/4
f 3/3/3 10/2/10 9/1/9
f 9/11/4 10/12/4 4/6/4
f 3/3/3 11/2/11 10/1/10
f 10/12/4 11/13/4 4/6/4
f 3/3/3 1/2/1 11/1/11
f 11/13/4 1/4/4 4/6/4

